<svg width="29" height="23" viewBox="0 0 29 23" fill="none" xmlns="http://www.w3.org/2000/svg">
<path d="M2.86507 0H7.74089H14.6864H21.4833H26.1349C26.9232 0 27.6406 0.323324 28.1598 0.840169C28.679 1.35938 29 2.07682 29 2.86507V4.54777V18.0589V19.7322C29 20.5204 28.6767 21.2379 28.1598 21.7571C27.6406 22.2763 26.9232 22.5973 26.1349 22.5973H21.6037C21.5659 22.6043 21.5258 22.6067 21.4833 22.6067C21.4432 22.6067 21.4031 22.6043 21.363 22.5973H14.8068C14.769 22.6043 14.7289 22.6067 14.6864 22.6067C14.6463 22.6067 14.6062 22.6043 14.5661 22.5973H7.86125C7.82349 22.6043 7.78337 22.6067 7.74089 22.6067C7.70076 22.6067 7.66064 22.6043 7.62052 22.5973H2.86507C2.07682 22.5973 1.35938 22.2739 0.840169 21.7571C0.320964 21.2402 0 20.5204 0 19.7322V18.0589V4.54777V2.86507C0 2.07682 0.323324 1.35938 0.840169 0.840169C1.35938 0.323324 2.07682 0 2.86507 0ZM13.025 7.37272L17.8701 10.7523C17.9456 10.7995 18.0141 10.8656 18.0684 10.9434C18.2855 11.2573 18.2052 11.6845 17.8937 11.9016L13.0675 15.2387C12.9495 15.3355 12.7961 15.3945 12.6309 15.3945C12.2485 15.3945 11.9394 15.0853 11.9394 14.703V7.93677H11.9417C11.9417 7.79989 11.9819 7.663 12.0645 7.54264C12.2839 7.23112 12.7135 7.1556 13.025 7.37272ZM22.1724 18.7504V21.2166H26.1326C26.5409 21.2166 26.9114 21.0491 27.1804 20.78C27.4495 20.511 27.617 20.1405 27.617 19.7322V18.7504H22.1724ZM20.7918 21.2166V18.7504H15.3779V21.2166H20.7918ZM13.9973 21.2166V18.7504H8.43237V21.2166H13.9973ZM7.0494 21.2166V18.7504H1.38062V19.7322C1.38062 20.1405 1.54818 20.511 1.81722 20.78C2.08626 21.0491 2.45679 21.2166 2.86507 21.2166H7.0494ZM1.38062 17.3698H7.74089H14.6864H21.4833H27.6194V5.23926H21.4833H14.6864H7.74089H1.38062V17.3698ZM20.7918 3.85864V1.38062H15.3779V3.85628H20.7918V3.85864ZM22.1724 1.38062V3.85628H27.617V2.86507C27.617 2.45679 27.4495 2.08626 27.1804 1.81722C26.9114 1.54818 26.5409 1.38062 26.1326 1.38062H22.1724ZM13.9973 3.85864V1.38062H8.43237V3.85628H13.9973V3.85864ZM7.0494 3.85864V1.38062H2.86507C2.45679 1.38062 2.08626 1.54818 1.81722 1.81722C1.54818 2.08626 1.38062 2.45679 1.38062 2.86507V3.85628H7.0494V3.85864Z" fill="#131313"/>
</svg>
